Coordinates
version=1
nRows=18
nColumns=38
inDegrees=yes

Units are S.I. units (second, meters, Newtons, ...)
Angles are in degrees.

endheader
time	pelvis_tilt	pelvis_list	pelvis_rotation	pelvis_tx	pelvis_ty	pelvis_tz	hip_flexion_r	hip_adduction_r	hip_rotation_r	knee_angle_r	ankle_angle_r	subtalar_angle_r	mtp_angle_r	hip_flexion_l	hip_adduction_l	hip_rotation_l	knee_angle_l	ankle_angle_l	subtalar_angle_l	mtp_angle_l	lumbar_extension	lumbar_bending	lumbar_rotation	arm_flex_r	arm_add_r	arm_rot_r	elbow_flex_r	pro_sup_r	wrist_flex_r	wrist_dev_r	arm_flex_l	arm_add_l	arm_rot_l	elbow_flex_l	pro_sup_l	wrist_flex_l	wrist_dev_l
      2.88000000	     -6.68694913	     -0.86370253	     -3.72474602	     -0.06886210	      0.86175453	      2.59693905	     27.19396144	      2.76975598	      0.35630125	    -21.22670173	      1.68628278	      0.00000000	      0.00000000	      1.74747659	     -2.62562033	     -1.36154400	    -63.56472232	    -20.32366814	      0.00000000	      0.00000000	     -2.35043771	      1.67971741	     -1.47298429	    -21.05381056	    -21.96725997	     10.68799998	    111.32175879	     81.78148946	      0.00000000	      0.00000000	     -0.95513983	    -13.67588122	     18.10160493	    126.02869856	     99.66218678	      0.00000000	      0.00000000
      2.89000000	     -5.68537938	     -1.72986171	     -4.19824588	     -0.07183061	      0.85306158	      2.60046265	     27.67758357	      4.26451196	      1.52520217	    -26.68727962	      3.53196941	      0.00000000	      0.00000000	      2.83341868	     -3.72128421	     -1.64151520	    -68.22687069	    -18.17053271	      0.00000000	      0.00000000	     -4.00288481	      2.37514139	     -0.47772579	    -18.56926225	    -21.97791242	     11.87447002	    109.56424633	     81.59391116	      0.00000000	      0.00000000	     -1.10762520	    -13.49786075	     18.08878318	    125.43724157	     99.68939745	      0.00000000	      0.00000000
      2.90000000	     -4.61825512	     -2.70695058	     -4.68908172	     -0.07506720	      0.84414835	      2.60400873	     28.15578853	      5.95850558	      2.46970068	    -32.35744537	      6.17947935	      0.00000000	      0.00000000	      3.98884076	     -4.96793910	     -1.90418647	    -72.82545781	    -15.99401796	      0.00000000	      0.00000000	     -5.75859215	      3.16066592	      0.62934720	    -15.83642508	    -22.04999180	     13.25925334	    107.80055098	     81.38516416	      0.00000000	      0.00000000	     -1.28913764	    -13.24236527	     17.90113488	    124.52138170	     99.64457435	      0.00000000	      0.00000000
      2.91000000	     -3.71786812	     -3.68867223	     -5.17248698	     -0.07849005	      0.83517754	      2.60707460	     28.48469076	      7.67031280	      3.16403298	    -37.48038564	      9.30265310	      0.00000000	      0.00000000	      5.43640905	     -6.22650369	     -2.13794048	    -77.20847954	    -13.85422011	      0.00000000	      0.00000000	     -7.32848275	      4.01328771	      1.80859827	    -12.92398970	    -22.20864350	     14.85005557	    106.07666217	     81.26741592	      0.00000000	      0.00000000	     -1.59304688	    -12.89162286	     17.57757195	    123.23149673	     99.57601398	      0.00000000	      0.00000000
      2.92000000	     -3.21689039	     -4.60144352	     -5.63218010	     -0.08200084	      0.82715194	      2.60923067	     28.52870366	      9.19878506	      3.59179994	    -41.40801662	     12.48032534	      0.00000000	      0.00000000	      7.37200056	     -7.36789606	     -2.29420983	    -81.17189521	    -11.80511405	      0.00000000	      0.00000000	     -8.46777804	      4.91656142	      2.99486453	     -9.92676225	    -22.44817374	     16.61959215	    104.44054156	     81.33413357	      0.00000000	      0.00000000	     -2.11284636	    -12.46089806	     17.18572917	    121.58421948	     99.53590557	      0.00000000	      0.00000000
      2.93000000	     -3.19464574	     -5.39915747	     -6.02388959	     -0.08525137	      0.82105368	      2.61035915	     28.18800683	     10.36679858	      3.74155889	    -43.83595854	     15.36203201	      0.00000000	      0.00000000	      9.82906303	     -8.28462848	     -2.28512608	    -84.54560582	     -9.88075587	      0.00000000	      0.00000000	     -9.06516901	      5.81926937	      4.09906895	     -6.94395372	    -22.71676865	     18.49542241	    102.97035229	     81.63287897	      0.00000000	      0.00000000	     -2.89673664	    -12.00483511	     16.79278232	    119.70135498	     99.55382029	      0.00000000	      0.00000000
      2.94000000	     -3.50423647	     -6.03025217	     -6.24321393	     -0.08785161	      0.81687836	      2.61073429	     27.39678366	     11.06820832	      3.61628697	    -44.87458865	     17.76237792	      0.00000000	      0.00000000	     12.63869785	     -8.88198885	     -2.02163825	    -87.25679697	     -8.09314490	      0.00000000	      0.00000000	     -9.17680682	      6.61894037	      5.01887335	     -4.05999186	    -22.92025854	     20.36423922	    101.78359747	     82.14959968	      0.00000000	      0.00000000	     -3.91607075	    -11.60593031	     16.43529594	    117.81004363	     99.61368588	      0.00000000	      0.00000000
      2.95000000	     -3.86599300	     -6.43340387	     -6.15159463	     -0.08973869	      0.81414266	      2.61067831	     26.12638227	     11.27703339	      3.25139223	    -44.91576157	     19.65954638	      0.00000000	      0.00000000	     15.53538040	     -9.07357100	     -1.46417284	    -89.31205348	     -6.44250734	      0.00000000	      0.00000000	     -8.99580652	      7.18845935	      5.66111079	     -1.34166418	    -22.94883333	     22.09646521	    101.00601060	     82.81187957	      0.00000000	      0.00000000	     -5.07690194	    -11.34950744	     16.10917053	    116.18161012	     99.64740105	      0.00000000	      0.00000000
      2.96000000	     -4.05445237	     -6.55704595	     -5.65158369	     -0.09126938	      0.81280522	      2.61035761	     24.40588864	     11.02766240	      2.72029387	    -44.38486633	     21.12539338	      0.00000000	      0.00000000	     18.31441932	     -8.79692253	     -0.65006169	    -90.72862562	     -4.93228649	      0.00000000	      0.00000000	     -8.75291920	      7.42417443	      5.97180046	      1.15147709	    -22.72075544	     23.58112025	    100.72276495	     83.51298605	      0.00000000	      0.00000000	     -6.27620600	    -11.29461899	     15.78738541	    115.03621134	     99.55183692	      0.00000000	      0.00000000
      2.97000000	     -4.02635928	     -6.37760262	     -4.75060209	     -0.09285757	      0.81309267	      2.60988080	     22.33124848	     10.39247317	      2.11751772	    -43.53887849	     22.23868427	      0.00000000	      0.00000000	     20.90560832	     -8.03731220	      0.31235706	    -91.49350161	     -3.57819341	      0.00000000	      0.00000000	     -8.58398084	      7.28419051	      5.96425799	      3.36526638	    -22.22180932	     24.75019930	    100.95216933	     84.14687399	      0.00000000	      0.00000000	     -7.46198772	    -11.45352934	     15.44821580	    114.47132358	     99.22423411	      0.00000000	      0.00000000
      2.98000000	     -3.91197774	     -5.90703106	     -3.57467688	     -0.09442765	      0.81489634	      2.60913647	     20.03465426	      9.46294983	      1.52928535	    -42.41885661	     23.02348516	      0.00000000	      0.00000000	     23.33571285	     -6.84024365	      1.27549555	    -91.57769448	     -2.40475871	      0.00000000	      0.00000000	     -8.45431079	      6.79924935	      5.72937147	      5.26595339	    -21.51374245	     25.58378038	    101.65379005	     84.63730993	      0.00000000	      0.00000000	     -8.64917436	    -11.79105459	     15.09000252	    114.45039485	     98.60086374	      0.00000000	      0.00000000
      2.99000000	     -3.90076554	     -5.19037534	     -2.32283941	     -0.09552253	      0.81779858	      2.60791316	     17.63261629	      8.32926308	      1.00995562	    -40.94340359	     23.42917939	      0.00000000	      0.00000000	     25.65672166	     -5.30615955	      2.09841234	    -90.96633372	     -1.43212121	      0.00000000	      0.00000000	     -8.20943396	      6.05143133	      5.41694317	      6.85162075	    -20.70117748	     26.10639013	    102.74874514	     84.94903370	      0.00000000	      0.00000000	     -9.88158381	    -12.24439302	     14.72540159	    114.84198013	     97.68166536	      0.00000000	      0.00000000
      3.00000000	     -4.11564137	     -4.29730590	     -1.18002113	     -0.09601418	      0.82154311	      2.60631058	     15.19216827	      7.06258338	      0.57556245	    -39.04679845	     23.34700823	      0.00000000	      0.00000000	     27.89658056	     -3.57040722	      2.68802252	    -89.66721181	     -0.66421791	      0.00000000	      0.00000000	     -7.71525573	      5.13242409	      5.19392417	      8.14180098	    -19.87510024	     26.38365236	    104.13255733	     85.08069131	      0.00000000	      0.00000000	    -11.17827655	    -12.75024861	     14.36840325	    115.47708069	     96.53132013	      0.00000000	      0.00000000
      3.01000000	     -4.55329565	     -3.30103735	     -0.24463851	     -0.09613490	      0.82612384	      2.60457538	     12.72976789	      5.71169352	      0.21009930	    -36.76229674	     22.64715196	      0.00000000	      0.00000000	     30.02830659	     -1.77442855	      3.01946367	    -87.70041339	     -0.08796215	      0.00000000	      0.00000000	     -6.96491321	      4.10851062	      5.19147635	      9.16326327	    -19.07686842	     26.50502886	    105.68910543	     85.05162398	      0.00000000	      0.00000000	    -12.51223510	    -13.26447293	     14.02879081	    116.19985367	     95.25964046	      0.00000000	      0.00000000
      3.02000000	     -5.10698259	     -2.25196759	      0.48284806	     -0.09600039	      0.83151058	      2.60284062	     10.22703450	      4.31300847	     -0.12593315	    -34.21509434	     21.21836346	      0.00000000	      0.00000000	     31.95372953	     -0.03371154	      3.13144753	    -85.08601707	      0.31855270	      0.00000000	      0.00000000	     -6.07398252	      3.01201035	      5.46132066	      9.95091909	    -18.30852664	     26.54889520	    107.31474460	     84.89468602	      0.00000000	      0.00000000	    -13.82889719	    -13.76928380	     13.71122011	    116.90014351	     93.99237849	      0.00000000	      0.00000000
      3.03000000	     -5.63676910	     -1.17558150	      1.05862963	     -0.09558981	      0.83761663	      2.60119935	      7.64574483	      2.89589057	     -0.48717994	    -31.56229431	     18.99555425	      0.00000000	      0.00000000	     33.52446245	      1.58745486	      3.10320720	    -81.83876547	      0.57994922	      0.00000000	      0.00000000	     -5.20378954	      1.85539404	      5.97189624	     10.54899882	    -17.56260952	     26.56281366	    108.93725044	     84.65377644	      0.00000000	      0.00000000	    -15.07525796	    -14.26762510	     13.40977707	    117.52320477	     92.84371604	      0.00000000	      0.00000000
      3.04000000	     -6.02978527	     -0.08682533	      1.54213609	     -0.09483344	      0.84443753	      2.59966096	      4.95002510	      1.47790009	     -0.93466965	    -28.93036122	     15.96907230	      0.00000000	      0.00000000	     34.60107011	      3.07868302	      3.02684699	    -77.97341554	      0.72531261	      0.00000000	      0.00000000	     -4.48751969	      0.65158663	      6.64526620	     11.00634624	    -16.83937757	     26.57326611	    110.51806185	     84.37931826	      0.00000000	      0.00000000	    -16.21826947	    -14.76573009	     13.10293035	    118.05806355	     91.89719432	      0.00000000	      0.00000000
      3.05000000	     -6.22797045	      1.00242253	      1.96429227	     -0.09366185	      0.85191231	      2.59817689	      2.13815315	      0.06392542	     -1.52686600	    -26.38327106	     12.18016037	      0.00000000	      0.00000000	     35.10859509	      4.45903740	      2.98604831	    -73.51783980	      0.79004501	      0.00000000	      0.00000000	     -3.99284966	     -0.57353752	      7.40102531	     11.37209881	    -16.14934856	     26.60532899	    112.04339993	     84.12135628	      0.00000000	      0.00000000	    -17.25565136	    -15.25490830	     12.75950862	    118.51174560	     91.19709805	      0.00000000	      0.00000000
